[img]http://www.filmofilia.com/wp-content/uploads/2012/09/HIMYM.jpg[/img]


Format                                   : MPEG-4
Format profile                           : Base Media / Version 2
Codec ID                                 : mp42
File size                                : 170 MiB
Duration                                 : 21mn 38s
Overall bit rate mode                    : Variable
Overall bit rate                         : 1 100 Kbps
Encoded date                             : UTC 2013-05-14 11:15:21
Tagged date                              : UTC 2013-05-14 11:33:30


Video
ID                                       : 1
Format                                   : AVC
Format/Info                              : Advanced Video Codec
Format profile                           : Main@L3.1
Format settings, CABAC                   : Yes
Format settings, ReFrames                : 4 frames
Codec ID                                 : avc1
Codec ID/Info                            : Advanced Video Coding
Duration                                 : 21mn 38s
Bit rate mode                            : Variable
Bit rate                                 : 1 000 Kbps
Width                                    : 1 280 pixels
Height                                   : 716 pixels
Display aspect ratio                     : 16:9
Frame rate mode                          : Variable
Frame rate                               : 24.000 fps
Minimum frame rate                       : 24.000 fps
Maximum frame rate                       : 24.006 fps
Color space                              : YUV
Chroma subsampling                       : 4:2:0
Bit depth                                : 8 bits
Scan type                                : Progressive
Bits/(Pixel*Frame)                       : 0.045
Stream size                              : 155 MiB (91%)
Writing library                          : x264 core 120

Audio
ID                                       : 2
Format                                   : AAC
Format/Info                              : Advanced Audio Codec
Format profile                           : LC
Codec ID                                 : 40
Duration                                 : 21mn 38s
Bit rate mode                            : Variable
Bit rate                                 : 96.0 Kbps
Maximum bit rate                         : 178 Kbps
Channel(s)                               : 2 channels
Channel positions                        : Front: L R
Sampling rate                            : 48.0 KHz
Compression mode                         : Lossy
Delay relative to video                  : 83ms
Stream size                              : 14.9 MiB (9%)






